<svg xmlns="http://www.w3.org/2000/svg" viewBox="0 0 500 500"><defs><style>.cls-1{isolation:isolate;}.cls-2{fill:#eef;}.cls-3{opacity:0.3;}.cls-18,.cls-20,.cls-22,.cls-23,.cls-4{fill:none;}.cls-4{stroke:#7371fc;stroke-miterlimit:10;}.cls-5{fill:#32338c;}.cls-6{fill:#7371fc;}.cls-7{fill:#f8ab73;}.cls-8{fill:#fe814b;}.cls-9{fill:#fe642f;}.cls-10,.cls-14{fill:#f8ab74;}.cls-11{fill:#fe632e;}.cls-12{fill:#32328c;}.cls-13{fill:#fe642e;}.cls-14{opacity:0.4;}.cls-14,.cls-24{mix-blend-mode:multiply;}.cls-15,.cls-24{fill:#91c4fb;}.cls-16{fill:#443dc3;}.cls-17{fill:#fefffd;}.cls-18,.cls-20{stroke:#32338c;}.cls-18,.cls-20,.cls-22,.cls-23{stroke-linecap:round;stroke-linejoin:round;}.cls-18{stroke-width:4.03px;}.cls-19{fill:#fff;}.cls-20{stroke-width:3.88px;}.cls-21{fill:#eeeefe;}.cls-22{stroke:#fe814b;}.cls-22,.cls-23{stroke-width:3.2px;}.cls-23{stroke:#91c4fb;}.cls-25{fill:#f8ab72;}</style></defs><g class="cls-1"><g id="BACKGROUND"><path class="cls-2" d="M80.91,373.2C27.71,310.55,46.35,217.69,78,189.55S159.94,146,186.86,113.08s57.93-56.42,114.61-39.46,55.84,61,72.84,88.3,92.81,42.5,88.5,112.47-52.44,69.85-74.38,87.09S331.87,460.13,262.6,461C177.71,462,125.94,426.22,80.91,373.2Z"/><g class="cls-3"><path class="cls-4" d="M272.63,35.94l-3,10.43a34.44,34.44,0,0,0-7.78,3.17l-9.61-5.28-8.58,8.48L249,62.22a33.16,33.16,0,0,0-3.21,7.69l-10.57,3v12l10.57,3A32.91,32.91,0,0,0,249,95.52L243.66,105l8.58,8.47,9.61-5.27a34.44,34.44,0,0,0,7.78,3.17l3,10.43H284.8l3-10.43a34.44,34.44,0,0,0,7.78-3.17l9.61,5.27,8.58-8.47-5.34-9.49a33.34,33.34,0,0,0,3.21-7.68l10.56-3v-12l-10.56-3a33.6,33.6,0,0,0-3.21-7.69l5.34-9.48-8.58-8.48-9.61,5.28a34.44,34.44,0,0,0-7.78-3.17l-3-10.43Zm6.08,20.5A22.44,22.44,0,1,1,256,78.87,22.63,22.63,0,0,1,278.71,56.44Z"/></g><g class="cls-3"><path class="cls-4" d="M450.24,233.58l-2,6.94a22.62,22.62,0,0,0-5.18,2.11l-6.39-3.51L431,244.76l3.55,6.31a22.36,22.36,0,0,0-2.14,5.11l-7,2v8l7,2a22.25,22.25,0,0,0,2.14,5.12L431,279.54l5.71,5.64,6.39-3.51a23.08,23.08,0,0,0,5.18,2.11l2,6.94h8.1l2-6.94a23.47,23.47,0,0,0,5.18-2.11l6.39,3.51,5.71-5.64-3.55-6.31a22.22,22.22,0,0,0,2.13-5.12l7-2v-8l-7-2a22.33,22.33,0,0,0-2.13-5.11l3.55-6.31-5.71-5.64-6.39,3.51a23,23,0,0,0-5.18-2.11l-2-6.94Zm4.05,13.64a14.93,14.93,0,1,1-15.12,14.93A15.06,15.06,0,0,1,454.29,247.22Z"/></g><g class="cls-3"><path class="cls-4" d="M87.2,251.85l-4.33,15.08a49.32,49.32,0,0,0-11.25,4.59l-13.89-7.63L45.31,276.15,53,289.86A48.16,48.16,0,0,0,48.39,301l-15.27,4.28v17.37l15.27,4.27A48,48,0,0,0,53,338l-7.73,13.72L57.73,364l13.89-7.63a49.32,49.32,0,0,0,11.25,4.59L87.2,376h17.6l4.33-15.08a49.58,49.58,0,0,0,11.26-4.59L134.28,364l12.41-12.25L139,338a48,48,0,0,0,4.64-11.11l15.28-4.27V305.25L143.61,301A48.14,48.14,0,0,0,139,289.86l7.72-13.71-12.41-12.26-13.89,7.63a49.58,49.58,0,0,0-11.26-4.59l-4.33-15.08ZM96,281.49c18.1,0,32.86,14.58,32.86,32.44S114.1,346.37,96,346.37s-32.86-14.58-32.86-32.44S77.91,281.49,96,281.49Z"/></g><path class="cls-5" d="M243.71,445.43h0a22.15,22.15,0,0,1,11.86-11.58l.17-.07-.72-.32a22.1,22.1,0,0,1-11.21-11.1l-.1-.22-.56,1.09a22.06,22.06,0,0,1-9.94,9.79l-1.53.76.09,0a22.12,22.12,0,0,1,11.61,10.93Z"/><path class="cls-6" d="M258.85,452.57h0a11,11,0,0,1,5.93-5.79l.08,0-.36-.16a11.08,11.08,0,0,1-5.61-5.55l0-.11-.28.55a11,11,0,0,1-5,4.89l-.77.38,0,0a11,11,0,0,1,5.8,5.47Z"/><path class="cls-6" d="M453,152.05h0a16.51,16.51,0,0,0-8.87-8.65l-.12-.05.54-.24a16.58,16.58,0,0,0,8.38-8.3l.07-.17.42.82a16.55,16.55,0,0,0,7.43,7.32l1.15.57-.07,0a16.53,16.53,0,0,0-8.68,8.16Z"/><path class="cls-5" d="M441.72,157.39h0a8.36,8.36,0,0,0-4.44-4.33l-.06,0,.27-.12a8.31,8.31,0,0,0,4.19-4.15l0-.08.2.41a8.32,8.32,0,0,0,3.72,3.65l.58.29h0a8.3,8.3,0,0,0-4.34,4.09Z"/><path class="cls-6" d="M53.69,239.62h0A16.53,16.53,0,0,0,44.82,231l-.12-.05.54-.24a16.54,16.54,0,0,0,8.38-8.3l.07-.17.42.82a16.5,16.5,0,0,0,7.43,7.32l1.15.57-.07,0a16.55,16.55,0,0,0-8.68,8.17Z"/><path class="cls-5" d="M42.38,245h0a8.29,8.29,0,0,0-4.44-4.33l-.06,0,.27-.12a8.27,8.27,0,0,0,4.19-4.15l0-.08.2.41a8.29,8.29,0,0,0,3.72,3.66l.57.28,0,0a8.25,8.25,0,0,0-4.34,4.08Z"/></g><g id="OBJECTS"><path class="cls-5" d="M357.8,115.69a63.22,63.22,0,0,1,21,6.77,170.25,170.25,0,0,1,50.46,39.93c5.68,6.61,11,14.12,11.94,22.79,1,9.92-4,19.36-8.8,28.09-4,7.27-8.88,15.21-16.92,17.32-6.58,1.73-13.48-1-19.43-4.34-23.25-12.95-40.69-35-50.69-59.7a78.94,78.94,0,0,1-5.84-36.19c.23-3.59-9.18-3.92-6.65-6.76C336.49,119.55,347.69,114.4,357.8,115.69Z"/><path class="cls-7" d="M416.67,137.29a22.73,22.73,0,0,1-2.54,2.91,34.6,34.6,0,0,1-11.19,6.92,24.22,24.22,0,0,1-9.51,2.14c-.37,0-.73,0-1.1-.07a5,5,0,0,0,.78,1.75c1.21,1.64,3.46,2.06,5.49,2.18a35.88,35.88,0,0,0,16-2.78,2.93,2.93,0,0,0,1.43-1,3.07,3.07,0,0,0,.26-1.78A67,67,0,0,1,416.67,137.29Z"/><path class="cls-8" d="M402.94,147.12a34.6,34.6,0,0,0,11.19-6.92,22.73,22.73,0,0,0,2.54-2.91c.56-5.55,1.51-11,1.8-16.65-5.69-1.34-14.87,4.56-18.83,8.29-5.11,4.8-8.32,11.86-7.56,18.82a10.09,10.09,0,0,0,.25,1.44c.37,0,.73.06,1.1.07A24.22,24.22,0,0,0,402.94,147.12Z"/><path class="cls-9" d="M441.25,95.47c3.47-4.88,7-9.81,9.1-15.4s2.8-12,.51-17.49-8-9.83-13.93-9.32c1.86-3.83-.41-8.08-3.53-11S426,38.1,421.76,37.45c-11.92-1.84-24.09.66-36.14.13-4.45-.19-9-.84-12.87-3s-6.93-6.24-6.93-10.7c-1.56,3.39-3.31,7.49-3.05,11.21s2.29,7.51,5.73,9c-3.46,1-7.08-1.16-9.32-4S356,33.54,355.8,30a19.82,19.82,0,0,0-7.86,10.65,25.39,25.39,0,0,0-1.29,12.11A14.88,14.88,0,0,0,353,62.85a9,9,0,0,1-5-.2,7.48,7.48,0,0,0,3,5.9,17.63,17.63,0,0,0,6.15,2.92c7.5,2.24,15.38,2.85,23.07,4.35,18.14,3.53,34.91,11.93,52.16,18.58C434.75,95.33,438.74,96.09,441.25,95.47Z"/><path class="cls-10" d="M422.32,92.75c-2.6-9.22-1.23-19.14,1.65-28.27-9.07,8.54-22.41,10.65-34.76,9a35.89,35.89,0,0,0,10.9-8.2c-12.27-.79-24.93,2.19-37.17,1A67.22,67.22,0,0,0,360.13,79a92.93,92.93,0,0,0,1.08,26.47c1.59,9.54,4.24,19.23,10.28,26.78s16.13,12.5,25.5,10.12a29.48,29.48,0,0,0,9.62-4.81c10.84-7.67,18.71-18.92,24-31.15A30,30,0,0,1,422.32,92.75Z"/><path class="cls-9" d="M400.11,65.25a35.89,35.89,0,0,1-10.9,8.2c12.35,1.68,25.69-.43,34.76-9-2.88,9.13-4.25,19-1.65,28.27a30,30,0,0,0,8.28,13.69c.69-1.59,1.34-3.2,1.94-4.81a64.61,64.61,0,0,0,4.51-21.69c.06-7.43-1.77-15-6.05-21.06-6-8.54-16.29-13.25-26.56-15.18a40.45,40.45,0,0,0-15.23-.32c-6.67,1.32-15.75,5.07-20.08,10.69a41.42,41.42,0,0,0-6.19,12.23C375.18,67.44,387.84,64.46,400.11,65.25Z"/><path class="cls-7" d="M425.5,92.8a22.89,22.89,0,0,0-.71,12.07c.56,3.1,1.83,6.45,4.68,7.78a7.45,7.45,0,0,0,6.69-.56,15.6,15.6,0,0,0,4.89-4.88,21.66,21.66,0,0,0,4-9.64,12.28,12.28,0,0,0-2.88-9.78c-2.34-2.5-6.47-4.32-9.7-2.83A14,14,0,0,0,425.5,92.8Z"/><path class="cls-5" d="M440.54,91.52a4.71,4.71,0,0,0-4.29-1.65,5.91,5.91,0,0,0-3.94,2.25,10.72,10.72,0,0,0-2.06,4.2,35,35,0,0,0-.8,4.78l-1-.41a5.1,5.1,0,0,1,4.14-2,3.41,3.41,0,0,1,2.2,1,4.37,4.37,0,0,1,1.08,2.1,4.6,4.6,0,0,1-.1,2.3,5.12,5.12,0,0,1-1.16,1.93,7.59,7.59,0,0,1-3.8,2,7.89,7.89,0,0,0,3.41-2.37,4.84,4.84,0,0,0,.9-1.78,3.94,3.94,0,0,0,0-1.93,2.93,2.93,0,0,0-2.56-2.31,4.24,4.24,0,0,0-3.22,1.71l-1.18,1.47.21-1.88a29.56,29.56,0,0,1,.86-4.94,10.89,10.89,0,0,1,2.42-4.51,6.65,6.65,0,0,1,4.58-2.22A4.82,4.82,0,0,1,440.54,91.52Z"/><path class="cls-5" d="M388.7,82.39a37.44,37.44,0,0,1,0,13.92,39.49,39.49,0,0,1-4.83,13.1l-.13-.42a14.84,14.84,0,0,0,2.14,1.09,16.88,16.88,0,0,0,2.32.73,12.53,12.53,0,0,1-4.76-1.28l-.26-.13.14-.29a55,55,0,0,0,4.31-13A59.27,59.27,0,0,0,388.7,82.39Z"/><path class="cls-11" d="M385.58,123.6a7.65,7.65,0,0,0,3.33,1.27c3.14.29,6.09-2.57,8.16-5.29A15.65,15.65,0,0,0,385.58,123.6Z"/><path class="cls-5" d="M387.75,118.4c-4-.42-9.92-4-9.92-4s3.38,6.4,7.75,9.2a15.65,15.65,0,0,1,11.49-4A33.74,33.74,0,0,0,400,115S391.74,118.81,387.75,118.4Z"/><path class="cls-12" d="M377.14,91.71c.11,2.13-.91,3.91-2.28,4s-2.56-1.61-2.67-3.73.92-3.91,2.29-4S377,89.58,377.14,91.71Z"/><path class="cls-12" d="M405,92.23c.11,2.13-.92,3.91-2.28,4s-2.56-1.6-2.67-3.73.92-3.91,2.29-4S404.85,90.11,405,92.23Z"/><path class="cls-13" d="M366.55,83.45a12.65,12.65,0,0,1,1.75-3.7,13,13,0,0,1,1.36-1.64,13.55,13.55,0,0,1,1.68-1.4c.61-.42,1.24-.87,1.92-1.25a4.38,4.38,0,0,1,2.25-.51,5,5,0,0,1,4.13,2.25l-.12.43a27.35,27.35,0,0,1-3.45,1.75,4.17,4.17,0,0,1-1.48.31,5.47,5.47,0,0,0-1.61.2,9.38,9.38,0,0,0-1.56.62,10.15,10.15,0,0,0-1.55.84,17,17,0,0,0-2.93,2.33Z"/><path class="cls-13" d="M409.57,83.68a17,17,0,0,0-2.93-2.33,10.15,10.15,0,0,0-1.55-.84,9.38,9.38,0,0,0-1.56-.62,5.45,5.45,0,0,0-1.6-.2,4.18,4.18,0,0,1-1.49-.31A27.35,27.35,0,0,1,397,77.63l-.12-.43A5,5,0,0,1,401,75a4.38,4.38,0,0,1,2.25.51c.68.38,1.31.83,1.92,1.25a14.44,14.44,0,0,1,1.69,1.4,13.82,13.82,0,0,1,1.35,1.64,12.65,12.65,0,0,1,1.75,3.7Z"/><path class="cls-14" d="M375.75,109.67c0,1.7-2.3,3.07-5.14,3.07s-5.14-1.37-5.14-3.07,2.3-3.08,5.14-3.08S375.75,108,375.75,109.67Z"/><path class="cls-14" d="M411.41,109.67c0,1.7-2.3,3.07-5.14,3.07s-5.14-1.37-5.14-3.07,2.3-3.08,5.14-3.08S411.41,108,411.41,109.67Z"/><path class="cls-10" d="M366,24a16.46,16.46,0,0,0,1.35,10.35,16.43,16.43,0,0,0,7,7.55,22.72,22.72,0,0,0,10.16,2.18,102.35,102.35,0,0,0,10.63-.51c7.09-.56,14.24-1.52,21.45-1a20.78,20.78,0,0,1,10.24,3.29,13.24,13.24,0,0,1,3.65,4A9.67,9.67,0,0,1,431.81,55a9.81,9.81,0,0,0-1.61-5,12.79,12.79,0,0,0-3.7-3.7,20.32,20.32,0,0,0-10-2.89c-7.08-.37-14.17.57-21.28,1.22a104.17,104.17,0,0,1-10.76.42c-3.58-.12-7.32-.61-10.54-2.45a17.09,17.09,0,0,1-7.09-8.08A16.24,16.24,0,0,1,366,24Z"/><path class="cls-10" d="M427.75,61.17a12,12,0,0,0-7.42-9,21,21,0,0,0-11.89-1,114.62,114.62,0,0,0-11.82,3.15,89.51,89.51,0,0,1-12.06,2.7,46,46,0,0,1-12.4.11c-4.08-.59-8.25-1.75-11.61-4.33a18.54,18.54,0,0,1-6.74-10.29,18.16,18.16,0,0,1,1.37-12.08,18.34,18.34,0,0,0-.84,12,17.91,17.91,0,0,0,6.72,9.73,24.67,24.67,0,0,0,11.24,4A44.67,44.67,0,0,0,384.41,56a87.72,87.72,0,0,0,11.93-2.56c3.93-1.08,7.85-2.44,12-3a21.62,21.62,0,0,1,12.24,1.31,13.53,13.53,0,0,1,4.87,3.83A10.57,10.57,0,0,1,427.75,61.17Z"/><path class="cls-10" d="M423.56,59.24a8.56,8.56,0,0,0-5.94-3.82,12.86,12.86,0,0,0-7,1,22.57,22.57,0,0,0-6.09,4c-1.86,1.62-3.63,3.4-5.49,5.08a56.48,56.48,0,0,1,4.9-5.72,19.81,19.81,0,0,1,6.25-4.36,15.09,15.09,0,0,1,3.74-1,11.31,11.31,0,0,1,3.89.2,8.94,8.94,0,0,1,3.49,1.66A7.28,7.28,0,0,1,423.56,59.24Z"/><path class="cls-10" d="M437.6,59a6.62,6.62,0,0,1,4.47.17A8.78,8.78,0,0,1,445.73,62a14.69,14.69,0,0,1,2.81,8.64,22.15,22.15,0,0,1-1.74,8.9,34.6,34.6,0,0,1-2,4,37.73,37.73,0,0,1-2.53,3.7c.71-1.31,1.44-2.61,2.05-4A34.38,34.38,0,0,0,446,79.22a24.68,24.68,0,0,0,1.43-8.57A15.18,15.18,0,0,0,445,62.49a8,8,0,0,0-3.19-2.79A6.75,6.75,0,0,0,437.6,59Z"/><path class="cls-10" d="M429.76,63.78a4.82,4.82,0,0,1,3.14.53,6.78,6.78,0,0,1,2.42,2.22,16.23,16.23,0,0,1,2.31,6,20.35,20.35,0,0,1,.2,6.42,19.57,19.57,0,0,1-.66,3.13c-.17.51-.34,1-.54,1.5a3,3,0,0,1-.36.74c-.16.21-.47.42-.72.27.28.08.47-.16.58-.37a2.63,2.63,0,0,0,.21-.72c.12-.51.21-1,.29-1.54a27,27,0,0,0,.33-3.09,25.66,25.66,0,0,0-.42-6.13,19,19,0,0,0-2-5.76,6.92,6.92,0,0,0-2-2.23A5,5,0,0,0,429.76,63.78Z"/><rect class="cls-2" x="77.44" y="101.83" width="126.42" height="137.41" transform="translate(-20.67 19.4) rotate(-7.35)"/><rect class="cls-6" x="66.73" y="72.57" width="126.42" height="29.94" transform="translate(-10.13 17.35) rotate(-7.35)"/><rect class="cls-15" x="60.82" y="111.02" width="17.21" height="137.41" transform="translate(-22.43 10.36) rotate(-7.35)"/><rect class="cls-16" x="50.11" y="81.76" width="17.21" height="29.94" transform="translate(-11.9 8.31) rotate(-7.35)"/><rect class="cls-17" x="80.46" y="117.64" width="19.32" height="26.23" transform="matrix(0.99, -0.13, 0.13, 0.99, -15.99, 12.61)"/><rect class="cls-17" x="103.2" y="114.71" width="19.32" height="26.23" transform="matrix(0.99, -0.13, 0.13, 0.99, -15.43, 15.49)"/><rect class="cls-17" x="125.94" y="111.78" width="19.32" height="26.23" transform="translate(-14.87 18.38) rotate(-7.35)"/><rect class="cls-17" x="148.68" y="108.84" width="19.32" height="26.23" transform="translate(-14.3 21.26) rotate(-7.35)"/><rect class="cls-17" x="171.42" y="105.91" width="19.32" height="26.23" transform="translate(-13.74 24.15) rotate(-7.35)"/><rect class="cls-17" x="84.25" y="147.06" width="19.32" height="26.23" transform="matrix(0.99, -0.13, 0.13, 0.99, -19.72, 13.33)"/><rect class="cls-17" x="106.99" y="144.12" width="19.32" height="26.23" transform="translate(-19.16 16.22) rotate(-7.35)"/><rect class="cls-17" x="129.73" y="141.19" width="19.32" height="26.23" transform="matrix(0.99, -0.13, 0.13, 0.99, -18.6, 19.11)"/><rect class="cls-17" x="152.47" y="138.25" width="19.32" height="26.23" transform="translate(-18.04 21.99) rotate(-7.35)"/><rect class="cls-17" x="175.21" y="135.32" width="19.32" height="26.23" transform="matrix(0.99, -0.13, 0.13, 0.99, -17.47, 24.88)"/><rect class="cls-17" x="88.05" y="176.47" width="19.32" height="26.23" transform="matrix(0.99, -0.13, 0.13, 0.99, -23.46, 14.06)"/><rect class="cls-17" x="110.79" y="173.54" width="19.32" height="26.23" transform="translate(-22.89 16.95) rotate(-7.35)"/><rect class="cls-17" x="133.53" y="170.6" width="19.32" height="26.23" transform="translate(-22.33 19.83) rotate(-7.35)"/><rect class="cls-17" x="156.27" y="167.67" width="19.32" height="26.23" transform="translate(-21.77 22.72) rotate(-7.35)"/><rect class="cls-17" x="179.01" y="164.73" width="19.32" height="26.23" transform="translate(-21.21 25.61) rotate(-7.35)"/><rect class="cls-17" x="91.84" y="205.88" width="19.32" height="26.23" transform="translate(-27.19 14.79) rotate(-7.35)"/><rect class="cls-17" x="114.58" y="202.95" width="19.32" height="26.23" transform="translate(-26.63 17.67) rotate(-7.35)"/><rect class="cls-17" x="137.32" y="200.01" width="19.32" height="26.23" transform="translate(-26.07 20.56) rotate(-7.35)"/><rect class="cls-17" x="160.06" y="197.08" width="19.32" height="26.23" transform="translate(-25.5 23.44) rotate(-7.35)"/><rect class="cls-17" x="182.8" y="194.15" width="19.32" height="26.23" transform="translate(-24.94 26.33) rotate(-7.35)"/><path class="cls-18" d="M58.34,81.69l-1.09-8.44A9.67,9.67,0,0,1,65.6,62.43l5.86-.75A9.65,9.65,0,0,1,82.28,70l1.87,14.54a9.65,9.65,0,0,1-8.34,10.82h0"/><path class="cls-18" d="M75.07,79.53,74,71.09a9.67,9.67,0,0,1,8.35-10.82l5.86-.75A9.67,9.67,0,0,1,99,67.86l1.87,14.54a9.65,9.65,0,0,1-8.34,10.82h0"/><path class="cls-18" d="M91.8,77.37l-1.09-8.44a9.65,9.65,0,0,1,8.34-10.81l5.87-.76a9.67,9.67,0,0,1,10.82,8.34l1.87,14.55a9.65,9.65,0,0,1-8.34,10.81h0"/><path class="cls-18" d="M108.53,75.21l-1.09-8.44A9.65,9.65,0,0,1,115.78,56l5.87-.76a9.65,9.65,0,0,1,10.81,8.35l1.88,14.54A9.65,9.65,0,0,1,126,88.9h0"/><path class="cls-18" d="M125.26,73.05l-1.09-8.43a9.65,9.65,0,0,1,8.34-10.82l5.87-.76a9.66,9.66,0,0,1,10.81,8.35l1.88,14.54a9.65,9.65,0,0,1-8.34,10.81h0"/><path class="cls-18" d="M142,70.89l-1.08-8.43a9.65,9.65,0,0,1,8.34-10.82l5.87-.76a9.66,9.66,0,0,1,10.81,8.35l1.88,14.54a9.67,9.67,0,0,1-8.35,10.82h0"/><path class="cls-18" d="M158.71,68.74l-1.09-8.44A9.67,9.67,0,0,1,166,49.48l5.86-.75a9.65,9.65,0,0,1,10.82,8.34l1.88,14.54a9.67,9.67,0,0,1-8.35,10.82h0"/><circle class="cls-5" cx="248.27" cy="255.87" r="153.24"/><circle class="cls-6" cx="255.48" cy="255.87" r="153.24"/><path class="cls-19" d="M279.37,331.53c27.66-11.15,52.75-29.71,69-54.69,18.91-29,24.61-64.21,23-99.21A139.83,139.83,0,0,0,134.55,326.09C179.43,347.3,233.21,350.15,279.37,331.53Z"/><path class="cls-2" d="M371.37,177.63c1.65,35-4.05,70.19-23,99.21-16.29,25-41.38,43.54-69,54.69-46.16,18.62-99.94,15.77-144.82-5.44A139.83,139.83,0,1,0,371.37,177.63Z"/><polygon class="cls-5" points="253.95 257.68 188.17 199.04 257 254.06 253.95 257.68"/><polygon class="cls-5" points="258.1 254.21 288.45 365.65 252.86 257.53 258.1 254.21"/><circle class="cls-8" cx="255.48" cy="255.87" r="10.36"/><line class="cls-20" x1="255.48" y1="116.06" x2="255.48" y2="145.78"/><line class="cls-20" x1="255.48" y1="365.96" x2="255.48" y2="395.69"/><line class="cls-20" x1="395.29" y1="255.87" x2="365.57" y2="255.87"/><line class="cls-20" x1="145.38" y1="255.87" x2="115.66" y2="255.87"/><line class="cls-20" x1="137.46" y1="180.9" x2="162.55" y2="196.84"/><line class="cls-20" x1="348.41" y1="314.9" x2="373.49" y2="330.84"/><line class="cls-20" x1="330.45" y1="137.86" x2="314.51" y2="162.94"/><line class="cls-20" x1="196.44" y1="348.8" x2="180.51" y2="373.89"/><line class="cls-20" x1="373.49" y1="180.9" x2="348.41" y2="196.84"/><line class="cls-20" x1="162.55" y1="314.9" x2="137.46" y2="330.84"/><line class="cls-20" x1="180.51" y1="137.86" x2="196.44" y2="162.94"/><line class="cls-20" x1="314.51" y1="348.8" x2="330.45" y2="373.89"/><rect class="cls-10" x="52.64" y="356.01" width="144.3" height="79.31" transform="translate(-132.11 69.9) rotate(-20.75)"/><polygon class="cls-8" points="124.79 395.66 43.27 384.15 128.11 404.42 178.21 333.01 124.79 395.66"/><rect class="cls-5" x="304.66" y="299.43" width="129.25" height="166.73" transform="translate(97.82 -74.6) rotate(13.28)"/><rect class="cls-15" x="306.99" y="299.98" width="129.25" height="166.73" transform="translate(98.01 -75.12) rotate(13.28)"/><rect class="cls-19" x="316.84" y="316.01" width="108.09" height="140.89" transform="translate(98.7 -74.87) rotate(13.28)"/><path class="cls-5" d="M373.46,284.74h38.7A11.25,11.25,0,0,1,423.41,296v6.45a0,0,0,0,1,0,0h-61.2a0,0,0,0,1,0,0V296A11.25,11.25,0,0,1,373.46,284.74Z" transform="translate(77.96 -82.39) rotate(13.28)"/><circle class="cls-21" cx="349.36" cy="330.31" r="10.39" transform="translate(-60.76 79.4) rotate(-11.94)"/><polyline class="cls-22" points="344.5 325.9 348.85 332.93 361.34 325.21"/><line class="cls-23" x1="369.6" y1="328.41" x2="426.86" y2="341.93"/><line class="cls-23" x1="368.11" y1="334.73" x2="425.37" y2="348.25"/><line class="cls-23" x1="366.62" y1="341.06" x2="423.87" y2="354.57"/><path class="cls-21" d="M351.87,364.89a10.39,10.39,0,1,1-7.73-12.5A10.39,10.39,0,0,1,351.87,364.89Z"/><polyline class="cls-22" points="336.9 358.1 341.25 365.13 353.74 357.41"/><line class="cls-23" x1="362" y1="360.61" x2="419.26" y2="374.12"/><line class="cls-23" x1="360.51" y1="366.93" x2="417.76" y2="380.45"/><line class="cls-23" x1="359.02" y1="373.26" x2="416.27" y2="386.77"/><circle class="cls-21" cx="334.15" cy="394.7" r="10.39" transform="translate(-165.88 526.68) rotate(-64.53)"/><polyline class="cls-22" points="329.3 390.3 333.64 397.33 346.13 389.61"/><line class="cls-23" x1="354.4" y1="392.81" x2="411.66" y2="406.32"/><line class="cls-23" x1="352.91" y1="399.13" x2="410.16" y2="412.65"/><line class="cls-23" x1="351.42" y1="405.45" x2="408.67" y2="418.97"/><path class="cls-24" d="M345.25,302.08h88.8a0,0,0,0,1,0,0v5.17a4.55,4.55,0,0,1-4.55,4.55H349.8a4.55,4.55,0,0,1-4.55-4.55v-5.17A0,0,0,0,1,345.25,302.08Z" transform="translate(80.94 -81.31) rotate(13.28)"/><circle class="cls-21" cx="326.79" cy="426.96" r="10.39" transform="translate(-177.54 240.59) rotate(-32.29)"/><polyline class="cls-22" points="321.94 422.56 326.28 429.58 338.77 421.86"/><line class="cls-23" x1="347.04" y1="425.06" x2="404.29" y2="438.58"/><line class="cls-23" x1="345.54" y1="431.39" x2="402.8" y2="444.9"/><line class="cls-23" x1="344.05" y1="437.71" x2="401.31" y2="451.22"/><path class="cls-19" d="M416.67,169.26a101.12,101.12,0,0,1-10.52,18.51,89.26,89.26,0,0,1,4.78-9.53A91,91,0,0,1,416.67,169.26Z"/><path class="cls-5" d="M431.41,215.09s-10.09,15.84-20.08,27.63-24.08,25-24.08,25l-75.33-31.56L323,210.39l55.15,17,31.78-45Z"/><path class="cls-25" d="M311.1,205.39l11.88,5-7.79,18.17-7.73-2.63-17,.7-5-2.5a3.6,3.6,0,0,1-1.53-5l1.36-2.43-1.21-.94a3.6,3.6,0,0,1-.28-5.43l1.35-1.31-1.84-2.49a3.6,3.6,0,0,1,1.23-5.33l1.87-1-.61-3.3a3.61,3.61,0,0,1,2.69-4.15h0a8.47,8.47,0,0,1,6.95,1.35Z"/><path class="cls-25" d="M311.31,206.61c-3.62-7.74-7.29-15.69-7.95-24.2a1.44,1.44,0,0,0-.42-1.13,1.22,1.22,0,0,0-.7-.17,5,5,0,0,0-4.54,3.33,7.52,7.52,0,0,0,.41,5.82,2.73,2.73,0,0,1,.39,1.24,2.45,2.45,0,0,1-.4,1.06c-.63,1.11-1.26,2.21-1.88,3.32A34.65,34.65,0,0,0,311.31,206.61Z"/><path class="cls-5" d="M304.41,201.46c-.72-.44-1.4-.94-2.07-1.44s-1.32-1-2-1.55-1.28-1.08-1.89-1.66-1.22-1.14-1.79-1.77c.72.45,1.4.94,2.07,1.44s1.32,1,2,1.56,1.27,1.08,1.89,1.65S303.84,200.84,304.41,201.46Z"/><path class="cls-10" d="M300.49,99.82l18.23,7a5.63,5.63,0,0,1,3.59,5.81l-.93,9.28-6.3,10.34a2.64,2.64,0,0,1-1.66-3.62c.93-2.89,4-10.65,4-10.65v-5.48s-3,12.65-5.84,15-13.18-2.24-16-4.52c-1.36-1.11,1.06-4.69,1.39-10C297.38,107.39,295.78,100,300.49,99.82Z"/><path class="cls-5" d="M312.15,104.06a29.29,29.29,0,0,1,.22,6.35,34.45,34.45,0,0,1-1.06,6.29,34.85,34.85,0,0,1-2.27,6,29.74,29.74,0,0,1-3.41,5.37,43.93,43.93,0,0,0,3-5.55,38.08,38.08,0,0,0,2.12-5.93,39.19,39.19,0,0,0,1.18-6.18A42.85,42.85,0,0,0,312.15,104.06Z"/><path class="cls-5" d="M305.22,101.65a36.91,36.91,0,0,1,0,6.22A39.86,39.86,0,0,1,302.31,120c-.42,1-.85,1.9-1.32,2.82-.26.45-.48.91-.76,1.36a2.18,2.18,0,0,1-1.15,1,2.23,2.23,0,0,0,1-1.1c.24-.46.43-.94.64-1.41.42-.94.81-1.9,1.17-2.86a50.2,50.2,0,0,0,1.8-5.9,49.65,49.65,0,0,0,1.1-6.06A60.68,60.68,0,0,0,305.22,101.65Z"/></g></g></svg>